<svg width="20" height="19" viewBox="0 0 20 19" fill="none" xmlns="http://www.w3.org/2000/svg">
<path d="M0 9.40299C0.00116354 14.0293 3.57841 17.9684 8.43702 18.6935V12.1208H5.90001V9.40299H8.44002V7.33405C8.32647 6.35369 8.68254 5.37663 9.41166 4.66787C10.1408 3.95911 11.1674 3.5921 12.213 3.66638C12.9636 3.67778 13.7122 3.74064 14.453 3.85446V6.16698H13.189C12.7539 6.11338 12.3164 6.24853 11.9998 6.53437C11.6832 6.82021 11.5218 7.22579 11.561 7.63687V9.40299H14.332L13.889 12.1218H11.561V18.6935C16.8155 17.9125 20.5001 13.3996 19.9455 8.42407C19.391 3.44855 14.7913 -0.247751 9.47884 0.0129824C4.16637 0.273715 0.000844478 4.4002 0 9.40299Z" fill="white"/>
</svg>
