<svg width="19" height="18" viewBox="0 0 19 18" fill="none" xmlns="http://www.w3.org/2000/svg">
<path d="M9 17.9021C6.54 17.9021 6.25 17.8899 5.29 17.8504C4.54137 17.8272 3.80244 17.6841 3.105 17.4272C1.89831 16.9856 0.944141 16.0879 0.475 14.9529C0.212306 14.2946 0.0706179 13.5991 0.056 12.8962C0 11.9952 0 11.6999 0 9.40434C0 7.08429 0.013 6.81344 0.056 5.91533C0.0709377 5.21331 0.212621 4.51879 0.475 3.86142C0.943632 2.72493 1.89935 1.82648 3.108 1.3862C3.80665 1.13811 4.54535 1.00451 5.292 0.991213C6.247 0.94043 6.561 0.94043 9 0.94043C11.48 0.94043 11.765 0.952655 12.71 0.991213C13.4586 1.00463 14.1993 1.13821 14.9 1.3862C16.1083 1.82698 17.0638 2.72526 17.533 3.86142C17.8001 4.52837 17.9426 5.23375 17.954 5.94636C18.01 6.8473 18.01 7.14165 18.01 9.43631C18.01 11.731 17.996 12.0319 17.954 12.9225C17.9391 13.6261 17.7971 14.3223 17.534 14.9811C17.0637 16.1169 16.1081 17.0149 14.9 17.4563C14.2003 17.7029 13.4611 17.8361 12.714 17.8504C11.759 17.9021 11.446 17.9021 9 17.9021ZM8.966 2.42914C6.52 2.42914 6.266 2.44042 5.311 2.48086C4.74099 2.48796 4.17648 2.58689 3.642 2.77334C2.85275 3.05736 2.22823 3.64229 1.923 4.38336C1.72321 4.89147 1.61801 5.42816 1.612 5.96987C1.559 6.88115 1.559 7.12002 1.559 9.40434C1.559 11.6614 1.568 11.935 1.612 12.8407C1.62095 13.3769 1.7261 13.9079 1.923 14.4112C2.22868 15.1518 2.8531 15.7363 3.642 16.0203C4.17612 16.208 4.74085 16.3069 5.311 16.3128C6.279 16.3654 6.534 16.3654 8.966 16.3654C11.419 16.3654 11.673 16.3541 12.62 16.3128C13.1904 16.3062 13.7553 16.2073 14.29 16.0203C15.0745 15.7338 15.6949 15.1507 16 14.4131C16.1994 13.9045 16.3046 13.3676 16.311 12.8256H16.322C16.365 11.9266 16.365 11.6868 16.365 9.38929C16.365 7.09181 16.354 6.85012 16.311 5.952C16.302 5.41638 16.1969 4.88603 16 4.38336C15.6956 3.64472 15.0751 3.06044 14.29 2.77334C13.7555 2.58595 13.1904 2.48699 12.62 2.48086C11.653 2.42914 11.4 2.42914 8.966 2.42914ZM9 13.7482C7.12999 13.7493 5.44342 12.6909 4.72686 11.0665C4.01031 9.44212 4.40491 7.57174 5.72663 6.32767C7.04836 5.0836 9.03687 4.71088 10.7648 5.38335C12.4927 6.05582 13.6196 7.64101 13.62 9.39963C13.6173 11.7987 11.5511 13.7435 9 13.7482ZM9 6.57645C7.34315 6.57645 6 7.83959 6 9.39775C6 10.9559 7.34315 12.2191 9 12.2191C10.6569 12.2191 12 10.9559 12 9.39775C11.9962 7.84109 10.6553 6.58007 9 6.57645ZM13.8 5.90593C13.2054 5.90385 12.7249 5.44942 12.726 4.89026C12.7271 4.3311 13.2094 3.87835 13.804 3.87835C14.3986 3.87835 14.8809 4.33109 14.882 4.89025C14.8823 5.16003 14.7683 5.4188 14.5653 5.60938C14.3622 5.79996 14.0869 5.90667 13.8 5.90593Z" fill="white"/>
</svg>
