<svg width="20" height="18" viewBox="0 0 20 18" fill="none" xmlns="http://www.w3.org/2000/svg">
<path d="M14.5813 3.77115C14.9265 4.96552 15.0081 6.21368 14.8213 7.43884V7.48304C14.8103 7.62034 14.8033 7.74448 14.7973 7.86861C14.8961 7.91808 15.0074 7.94147 15.1193 7.93632C15.4091 7.91151 15.6912 7.83457 15.9503 7.70968C16.0661 7.65577 16.194 7.62868 16.3233 7.63068C16.4629 7.62863 16.6017 7.65161 16.7323 7.69839C17.0537 7.76799 17.2914 8.02345 17.3223 8.33224C17.3356 8.67205 17.0106 8.96641 16.3473 9.21531C16.2763 9.23694 16.1783 9.27268 16.0713 9.30935C15.7083 9.41186 15.1543 9.58114 14.9983 9.92157C14.9264 10.1441 14.963 10.3852 15.0983 10.5799L15.1103 10.5921C15.8224 12.1132 17.2471 13.2358 18.9643 13.6288C19.1638 13.6586 19.3083 13.8236 19.3013 14.0134C19.3002 14.0717 19.288 14.1294 19.2653 14.1836C19.0723 14.6134 18.2423 14.936 16.7353 15.1438C16.6749 15.2828 16.6307 15.4275 16.6033 15.5754C16.5782 15.7169 16.5425 15.8564 16.4963 15.993C16.4492 16.1851 16.2591 16.3154 16.0503 16.2986H16.0263C15.8805 16.2923 15.7356 16.2737 15.5933 16.2432C15.2568 16.1749 14.9135 16.1408 14.5693 16.1416C14.3239 16.1384 14.0788 16.1573 13.8373 16.198C13.3292 16.3232 12.8562 16.5511 12.4513 16.8657C11.7059 17.4552 10.7733 17.7949 9.80026 17.8315C9.75226 17.8315 9.70026 17.8203 9.65426 17.8203H9.53326C8.56352 17.7856 7.63509 17.4421 6.90025 16.846C6.50013 16.5313 6.03143 16.303 5.52725 16.1773C5.28056 16.1427 5.03166 16.1238 4.78225 16.1209C4.43806 16.1257 4.09528 16.1635 3.75925 16.2338C3.61649 16.2654 3.47081 16.284 3.32425 16.2892C3.1067 16.3044 2.90879 16.1709 2.85425 15.9723C2.80625 15.8275 2.78325 15.678 2.74725 15.5435C2.71914 15.3959 2.67456 15.2515 2.61425 15.1128C1.07125 14.9444 0.241247 14.6266 0.0492469 14.1855C0.0209981 14.1324 0.00433745 14.0745 0.000246845 14.0153C-0.00679937 13.8254 0.137759 13.6604 0.337247 13.6306C2.05526 13.2374 3.48023 12.1136 4.19125 10.5912L4.20025 10.5677C4.34049 10.3747 4.37744 10.1315 4.30025 9.90935C4.14425 9.58114 3.58925 9.41186 3.23025 9.29807C3.1346 9.27416 3.04127 9.2427 2.95125 9.20403C2.06125 8.87487 1.94025 8.50058 1.98925 8.24102C2.13108 7.87192 2.51243 7.63308 2.92925 7.65231C3.03487 7.65182 3.13955 7.67099 3.23725 7.70874C3.51312 7.84191 3.81564 7.91912 4.12525 7.93538C4.25591 7.93903 4.38527 7.91016 4.50025 7.85168L4.45925 7.42097C4.27312 6.19917 4.35514 4.95447 4.70025 3.76363C5.51176 1.9937 7.37899 0.859425 9.42826 0.891552L9.76326 0.881207H9.81226C11.8743 0.858026 13.7516 1.99565 14.5813 3.77115Z" fill="white"/>
</svg>
