<svg width="16" height="18" viewBox="0 0 16 18" fill="none" xmlns="http://www.w3.org/2000/svg">
<path fill-rule="evenodd" clip-rule="evenodd" d="M6.08045 14.7094C7.36087 14.7076 8.41336 13.6792 8.46941 12.375V0.736875H8.4699V12.375C8.42818 13.4138 7.74572 14.3117 6.76949 14.6121C5.79325 14.9126 4.73745 14.5498 4.13886 13.7081C3.16664 13.1861 2.66766 12.0564 2.92863 10.9682C2.97065 10.793 3.03065 10.6261 3.10632 10.4693C3.03316 10.6228 2.975 10.786 2.93397 10.9571C2.67301 12.0453 3.17199 13.1749 4.14421 13.6969C3.61741 12.9554 3.543 11.9754 3.95158 11.16C4.36017 10.3447 5.18272 9.83187 6.08076 9.83255C6.32022 9.8356 6.55802 9.87348 6.78697 9.94505V6.9863C6.55316 6.95059 6.31717 6.93179 6.08076 6.93005H5.95386V9.18005C5.95208 9.17957 5.9503 9.17908 5.94852 9.1786V6.96933C4.48875 6.99454 3.13633 7.63711 2.18337 8.69545C3.13218 7.62319 4.48751 6.96826 5.95353 6.93565V6.2494C5.71987 6.21165 5.48387 6.19097 5.24732 6.18751C2.95722 6.18259 0.929709 7.6956 0.242024 9.92267C-0.424079 12.0799 0.316598 14.4221 2.07211 15.7788C2.12669 15.8434 2.18296 15.907 2.24093 15.9693C2.29799 16.0086 2.35573 16.0467 2.4141 16.0835C3.88202 17.5522 6.06734 18.0134 7.99545 17.241C9.99856 16.4385 11.316 14.468 11.3164 12.2738V6.37879C12.4713 7.22253 13.857 7.67508 15.2778 7.67254V4.77567C15.0017 4.77477 14.7263 4.74504 14.4561 4.68694V4.6687C14.4541 4.66828 14.4522 4.66785 14.4502 4.66743V4.03875C13.6831 4.03902 12.933 3.80834 12.294 3.37568C12.2938 3.37543 12.2936 3.37519 12.2933 3.37495C12.2928 3.37458 12.2922 3.37421 12.2917 3.37384C11.6626 2.64293 11.3158 1.70364 11.3161 0.731201H10.5554H10.5547H10.5539C10.512 0.48986 10.4921 0.24509 10.4942 0H7.64183V11.6269C7.5944 12.9377 6.53944 13.976 5.25286 13.9781C4.86839 13.9748 4.49019 13.8784 4.14941 13.6969C4.59737 14.3296 5.31504 14.7059 6.08045 14.7094ZM14.4502 6.91871C13.0314 6.92075 11.6477 6.46821 10.4947 5.62495V5.62531C11.6457 6.47444 13.0295 6.93287 14.4502 6.93567V6.91871ZM6.35182 16.7563C5.99586 16.8341 5.62652 16.875 5.24783 16.875C5.24615 16.875 5.24446 16.875 5.24278 16.875C5.24434 16.875 5.24591 16.875 5.24747 16.875C5.62629 16.875 5.99575 16.8341 6.35182 16.7563Z" fill="white"/>
</svg>
