<svg width="21" height="17" viewBox="0 0 21 17" fill="none" xmlns="http://www.w3.org/2000/svg">
<path d="M18.454 3.40045C19.3504 2.89647 20.0211 2.10288 20.341 1.16788C19.4986 1.63791 18.577 1.96901 17.616 2.14686C16.2836 0.821356 14.1725 0.498788 12.4624 1.3594C10.7523 2.22001 9.86649 4.05075 10.3 5.82863C6.8496 5.66573 3.63496 4.13296 1.456 1.61176C0.318839 3.45633 0.899951 5.81432 2.784 7.0004C2.10271 6.97981 1.43653 6.80634 0.840999 6.49445C0.840999 6.51138 0.840999 6.52831 0.840999 6.54524C0.841393 8.46667 2.28137 10.1218 4.28399 10.5026C3.65206 10.6642 2.9892 10.688 2.346 10.5721C2.9092 12.2153 4.51954 13.341 6.35499 13.3746C4.83482 14.4967 2.95747 15.1052 1.025 15.1022C0.68247 15.1026 0.34021 15.0841 0 15.0467C1.96239 16.2326 4.24636 16.8621 6.57899 16.8598C9.82423 16.8808 12.943 15.6776 15.2377 13.5195C17.5324 11.3613 18.8115 8.4282 18.789 5.37629C18.789 5.20137 18.7846 5.02739 18.776 4.85435C19.6164 4.28314 20.3418 3.57551 20.918 2.76472C20.135 3.09111 19.3044 3.30539 18.454 3.40045Z" fill="white"/>
</svg>
